<svg xmlns="http://www.w3.org/2000/svg" width="37" height="32.5" viewBox="0 0 37 32.5">
  <g id="Gruppe_12" data-name="Gruppe 12" transform="translate(328 -179.5)">
    <path id="Icon_awesome-wpforms" data-name="Icon awesome-wpforms" d="M36,5.287V30.713a3.239,3.239,0,0,1-3.471,3.037H3.471A3.25,3.25,0,0,1,0,30.706V5.287A3.238,3.238,0,0,1,3.471,2.25H32.537A3.236,3.236,0,0,1,36,5.287ZM33,30.706V5.287a.45.45,0,0,0-.466-.408h-.747l-8.863,5.244L18,6.615l-4.918,3.508L4.219,4.872H3.471a.45.45,0,0,0-.466.408V30.706a.45.45,0,0,0,.466.408H32.537A.44.44,0,0,0,33,30.706ZM12.07,13.076v2.6H6.163v-2.6Zm0,5.23v2.622H6.163V18.306Zm.892-10.355L17.3,4.879H7.779l5.183,3.072Zm16.875,5.125v2.6H14.087v-2.6Zm0,5.23v2.622H14.087V18.306Zm-6.8-10.355,5.183-3.072H18.707l4.331,3.072Zm6.8,15.6v2.622H21.849V23.55h7.987Z" transform="translate(-327.5 177.75)"/>
    <path id="Icon_awesome-wpforms-2" data-name="Icon awesome-wpforms" d="M36,5.287V30.713a3.239,3.239,0,0,1-3.471,3.037H3.471A3.25,3.25,0,0,1,0,30.706V5.287A3.238,3.238,0,0,1,3.471,2.25H32.537A3.236,3.236,0,0,1,36,5.287ZM33,30.706V5.287a.45.45,0,0,0-.466-.408h-.747l-8.863,5.244L18,6.615l-4.918,3.508L4.219,4.872H3.471a.45.45,0,0,0-.466.408V30.706a.45.45,0,0,0,.466.408H32.537A.44.44,0,0,0,33,30.706ZM12.07,13.076v2.6H6.163v-2.6Zm0,5.23v2.622H6.163V18.306Zm.892-10.355L17.3,4.879H7.779l5.183,3.072Zm16.875,5.125v2.6H14.087v-2.6Zm0,5.23v2.622H14.087V18.306Zm-6.8-10.355,5.183-3.072H18.707l4.331,3.072Zm6.8,15.6v2.622H21.849V23.55h7.987Z" transform="translate(-327.5 177.75)" fill="hsl(215, 50%, 23%)" stroke="hsl(215, 50%, 23%)"  stroke-width="1"/>
  </g>
</svg>
