<svg xmlns="http://www.w3.org/2000/svg" width="40.5" height="36" viewBox="0 0 40.5 36">
  <path id="Icon_awesome-map-marked-alt" data-name="Icon awesome-map-marked-alt" d="M20.25,0a8.859,8.859,0,0,0-8.859,8.859c0,3.956,5.79,11.166,8.009,13.783a1.109,1.109,0,0,0,1.7,0c2.218-2.617,8.009-9.827,8.009-13.783A8.859,8.859,0,0,0,20.25,0Zm0,11.813A2.953,2.953,0,1,1,23.2,8.859,2.953,2.953,0,0,1,20.25,11.813ZM1.415,15.184A2.25,2.25,0,0,0,0,17.273v17.6a1.125,1.125,0,0,0,1.543,1.045L11.25,31.5V15.112a21.293,21.293,0,0,1-1.494-3.264ZM20.25,25.289A3.36,3.36,0,0,1,17.683,24.1C16.3,22.466,14.83,20.608,13.5,18.7V31.5L27,36V18.7c-1.33,1.9-2.8,3.763-4.183,5.394A3.361,3.361,0,0,1,20.25,25.289ZM38.957,11.332,29.25,15.75V36l9.835-3.934A2.25,2.25,0,0,0,40.5,29.977v-17.6A1.125,1.125,0,0,0,38.957,11.332Z" fill="hsl(215, 50%, 23%)" stroke="hsl(215, 50%, 23%)"/>
</svg>
